<svg width="240" height="61" viewBox="0 0 240 61" fill="none" xmlns="http://www.w3.org/2000/svg">
<g clip-path="url(#clip0_610_563)">
<path fill-rule="evenodd" clip-rule="evenodd" d="M15.1834 11.9042C28.5968 11.8895 42.0103 11.9042 55.4236 11.948C55.4687 11.9919 55.5139 12.0357 55.559 12.0796C55.6191 12.5473 55.6191 13.0151 55.559 13.4828C55.4838 13.5558 55.4086 13.629 55.3334 13.702C41.9801 13.7605 28.6269 13.7605 15.2736 13.702C15.1985 13.629 15.1232 13.5558 15.0481 13.4828C14.9879 13.0151 14.9879 12.5473 15.0481 12.0796C15.1128 12.0319 15.1579 11.9734 15.1834 11.9042Z" fill="#252A32"/>
<path fill-rule="evenodd" clip-rule="evenodd" d="M30.0705 14.6229H40.5365C40.5516 16.0557 40.5365 17.4881 40.4914 18.9203C40.3861 19.0226 40.2809 19.1249 40.1756 19.2272C38.5516 19.2419 36.9275 19.2564 35.3035 19.2711C33.6114 19.2847 31.9272 19.2408 30.2509 19.1395C30.1944 19.0737 30.1493 19.0006 30.1156 18.9203C30.0705 17.4881 30.0554 16.0557 30.0705 14.6229Z" fill="#262B32"/>
<path fill-rule="evenodd" clip-rule="evenodd" d="M105.137 16.8154C105.166 17.2678 105.106 17.7063 104.957 18.1309C104.117 19.1904 103.095 19.3803 101.889 18.7009C100.9 17.6458 100.93 16.6226 101.98 15.6314C103.137 14.97 104.114 15.1601 104.912 16.2014C105.039 16.39 105.114 16.5947 105.137 16.8154Z" fill="#252A32"/>
<path fill-rule="evenodd" clip-rule="evenodd" d="M144.024 21.025C143.922 21.2994 143.847 21.5918 143.799 21.902C143.725 22.736 143.739 23.5546 143.844 24.3577H148.175V26.3748H143.754V41.1085H141.408C141.392 34.4432 141.408 27.7779 141.453 21.1127C141.558 20.7691 141.603 20.4183 141.588 20.0603C142.661 16.3669 145.127 14.949 148.987 15.8068C149.332 15.96 149.662 16.1354 149.979 16.333C149.735 16.9738 149.464 17.6022 149.167 18.2186C146.287 17.1288 144.573 18.0643 144.024 21.025Z" fill="#242931"/>
<path fill-rule="evenodd" clip-rule="evenodd" d="M132.205 15.6752H129.859V35.2325C129.769 28.699 129.739 22.1506 129.769 15.5875C130.597 15.5589 131.409 15.5882 132.205 15.6752Z" fill="#808388"/>
<path fill-rule="evenodd" clip-rule="evenodd" d="M132.205 15.6753V24.5331H136.716V26.4625H132.205C132.175 29.3424 132.205 32.2072 132.295 35.0571C132.414 36.5028 133.046 37.6868 134.19 38.609C135.349 39.1313 136.507 39.1166 137.663 38.5652C137.969 39.1345 138.226 39.7339 138.43 40.363C138.401 40.4069 138.37 40.4507 138.34 40.4946C134.125 41.9467 131.343 40.6019 129.994 36.4604C129.919 36.0537 129.874 35.6444 129.859 35.2325V15.6753H132.205Z" fill="#232830"/>
<path fill-rule="evenodd" clip-rule="evenodd" d="M105.137 16.8154C105.24 17.1203 105.256 17.4418 105.182 17.7801C105.164 17.9398 105.09 18.0567 104.957 18.1309C105.106 17.7064 105.166 17.2679 105.137 16.8154Z" fill="#AEB0B3"/>
<path fill-rule="evenodd" clip-rule="evenodd" d="M37.8297 23.7438C37.718 23.8941 37.6579 24.0695 37.6493 24.27C36.0484 24.298 34.4544 24.2688 32.8674 24.1823C32.5188 22.8567 32.1279 21.5412 31.6945 20.2358C34.1005 20.1188 36.5064 20.1188 38.9124 20.2358C38.4954 21.3898 38.1345 22.5591 37.8297 23.7438Z" fill="#242931"/>
<path fill-rule="evenodd" clip-rule="evenodd" d="M169.502 38.5022L167.864 36.8644C166.384 38.3521 164.362 39.0214 161.799 38.8722C158.187 38.212 156.082 36.1219 155.483 32.6016C155.475 31.723 155.504 30.846 155.573 29.9705C155.922 28.5624 156.547 27.3885 157.449 26.4489L155.735 24.7352C154.845 25.6389 154.129 26.7408 153.588 28.0411C153.538 28.4503 153.418 28.8303 153.227 29.1812V29.2689C153.235 29.5015 153.175 29.7061 153.047 29.8828V30.3214C153.032 31.3171 153.062 32.311 153.137 33.3032C153.234 34.0574 153.428 34.7882 153.723 35.4957C155.291 38.6623 157.862 40.5186 161.438 41.0647C164.808 41.3173 167.496 40.4632 169.502 38.5022ZM157.296 23.4674C158.31 22.813 159.48 22.3351 160.806 22.0336C165.587 21.3975 169.151 23.1077 171.498 27.1641C172.56 29.3288 172.815 31.5797 172.265 33.9171C172.081 34.3065 171.931 34.7158 171.813 35.1449C171.505 35.8044 171.163 36.4092 170.788 36.9594L169.081 35.2522C169.287 34.8923 169.477 34.5057 169.648 34.0925C169.64 33.8599 169.7 33.6553 169.829 33.4786V33.3909C169.978 32.4327 170.039 31.468 170.009 30.4968C169.857 29.6878 169.601 28.8985 169.242 28.1288C167.269 24.8389 164.366 23.6258 160.535 24.4893C159.992 24.6916 159.491 24.9293 159.031 25.2025L157.296 23.4674Z" fill="#242931"/>
<path fill-rule="evenodd" clip-rule="evenodd" d="M198 40.4912C200.091 40.1415 201.978 39.1195 203.663 37.425C203.651 37.3482 203.681 37.2897 203.753 37.2496C203.872 38.0236 203.872 38.7836 203.753 39.5299C203.785 41.3825 203.093 42.9173 201.678 44.1341C199.739 45.3871 197.604 45.8841 195.272 45.625C192.75 45.3801 190.826 44.2254 189.497 42.1609C188.649 42.1049 187.837 42.1634 187.061 42.3363C187.632 43.8095 188.564 45.0226 189.858 45.9759C193.009 47.8485 196.377 48.3163 199.964 47.3791C202.12 46.8303 203.789 45.6464 204.971 43.8272C205.79 42.2294 206.212 40.5338 206.234 38.7405C206.322 35.4915 206.292 32.2466 206.144 29.0058C205.779 27.5655 205.147 26.25 204.249 25.0592C202.427 23.3311 200.344 22.3084 198 21.991V24.2758C200.294 24.6369 202.076 25.9797 203.347 28.3042C203.626 28.9267 203.822 29.5698 203.933 30.2336C203.96 31.2336 203.9 32.2275 203.753 33.2154V33.3031C203.592 33.5666 203.502 33.8589 203.482 34.1801C202.437 36.527 200.609 37.9145 198 38.3424V40.4912ZM196 24.2C195.675 24.2223 195.342 24.2602 195.001 24.3138C192.469 24.8988 190.695 26.3459 189.678 28.655C189.609 29.0292 189.489 29.38 189.317 29.7074C188.778 31.9867 189.214 34.0623 190.625 35.9341C192.149 37.523 193.94 38.367 196 38.4661V40.6225C195.183 40.598 194.339 40.4823 193.467 40.2753C188.521 38.4819 186.28 35.0177 186.746 29.8828C186.785 29.6753 186.83 29.4707 186.881 29.2689C187.071 28.9179 187.191 28.5379 187.242 28.1288C188.679 24.6721 191.296 22.6112 195.091 21.9459C195.398 21.9169 195.701 21.898 196 21.8894V24.2Z" fill="#252931"/>
<path fill-rule="evenodd" clip-rule="evenodd" d="M229.828 30.4967V31.6369H212.956C212.932 31.7771 212.962 31.894 213.046 31.9877C213.305 35.8496 215.38 38.1736 219.272 38.9599C221.53 39.0857 223.545 38.4718 225.317 37.1181C226.056 36.337 226.718 35.5038 227.302 34.6187C227.948 34.9179 228.579 35.2394 229.196 35.5834C228.425 37.5189 227.072 38.9952 225.136 40.0123C222.283 41.2962 219.366 41.4424 216.384 40.4508C214.509 39.6645 213.05 38.4221 212.009 36.7235C211.189 35.4307 210.723 34.0275 210.61 32.5139C210.583 31.4261 210.643 30.3445 210.791 29.2689C211.735 25.5881 214.081 23.2057 217.828 22.1213C223.037 21.2107 226.812 23.0378 229.151 27.6026C229.509 28.5402 229.735 29.5049 229.828 30.4967ZM227.211 29.2689C226.085 25.9196 223.694 24.2241 220.039 24.1823C216.7 24.3145 214.52 25.9224 213.497 29.0058C213.482 29.2129 213.451 29.4175 213.407 29.6197H227.211V29.2689Z" fill="#242931"/>
<path fill-rule="evenodd" clip-rule="evenodd" d="M83.6739 38.6739L82.034 37.034C80.5197 38.4886 78.4464 39.1306 75.8143 38.9598C72.9924 38.4581 71.0225 36.9233 69.9046 34.3555C69.7354 33.811 69.6301 33.2555 69.5888 32.6892C69.5789 31.7521 69.6089 30.8166 69.679 29.8828C70.0068 28.5295 70.6071 27.3953 71.48 26.48L69.8059 24.8059C68.6139 26.0217 67.8047 27.5971 67.3783 29.532C67.2454 35.6104 67.2003 41.691 67.243 47.7737H69.5888C69.5588 44.3822 69.5888 40.991 69.679 37.6004C69.7338 37.6113 69.7639 37.6405 69.7693 37.6881C71.9444 40.2355 74.7414 41.3902 78.1602 41.1523C80.4153 40.784 82.2533 39.9578 83.6739 38.6739ZM71.3755 23.5471C72.3128 22.9589 73.4014 22.5129 74.6414 22.209C79.9439 21.3146 83.7785 23.2002 86.1451 27.8657C86.8073 29.6277 87.0031 31.4402 86.7315 33.3031C86.6034 33.4798 86.5429 33.6844 86.5511 33.917C86.1755 35.157 85.6589 36.2423 85.0014 37.173L83.2789 35.4505C83.5998 34.9129 83.8785 34.3141 84.115 33.6539C84.1069 33.4213 84.1673 33.2167 84.2954 33.04C84.7195 30.4928 84.0428 28.2711 82.2654 26.3748C79.9241 24.2743 77.2318 23.7043 74.1903 24.6646C73.7883 24.8333 73.4115 25.0223 73.0599 25.2315L71.3755 23.5471Z" fill="#252A32"/>
<path fill-rule="evenodd" clip-rule="evenodd" d="M141.588 20.0603C141.603 20.4183 141.558 20.7691 141.453 21.1127C141.408 27.7779 141.392 34.4431 141.408 41.1085C141.302 34.3703 141.288 27.6173 141.363 20.8496C141.4 20.5653 141.475 20.3022 141.588 20.0603Z" fill="#4A4E55"/>
<path fill-rule="evenodd" clip-rule="evenodd" d="M93.4984 29.9705C93.3684 30.5946 93.2927 31.2378 93.2728 31.8999C93.2277 34.94 93.2124 37.9803 93.2277 41.0208H90.8819C90.8539 37.2475 90.8837 33.4764 90.9721 29.7074C91.6731 26.2527 93.6878 23.841 97.0171 22.4721C98.1747 22.184 99.2574 22.3447 100.265 22.9544C99.8502 23.6151 99.4144 24.2583 98.957 24.8838C98.4355 24.6761 97.9095 24.6614 97.378 24.84C96.0815 25.457 95.0737 26.3778 94.3555 27.6025C93.8809 28.3289 93.5949 29.1182 93.4984 29.9705Z" fill="#242931"/>
<path fill-rule="evenodd" clip-rule="evenodd" d="M125.528 28.0411C125.661 28.7656 125.721 29.4965 125.709 30.2337V41.0208H123.543C123.559 37.8342 123.543 34.6478 123.498 31.4615C123.482 31.2102 123.437 30.9764 123.363 30.7599C123.376 30.0849 123.346 29.4126 123.273 28.7428C123.292 28.4801 123.231 28.2462 123.092 28.0411C122.799 26.4845 121.867 25.5051 120.295 25.1032C118.698 24.703 117.104 24.703 115.513 25.1032C114.036 25.5916 112.969 26.5124 112.31 27.8657C112.206 28.5054 112.13 29.1485 112.085 29.7952C111.959 30.2134 111.899 30.6519 111.904 31.1107C111.816 34.4114 111.786 37.7148 111.814 41.0208H109.468C109.453 37.3665 109.468 33.7123 109.513 30.0583C109.649 29.3592 109.753 28.6576 109.829 27.9534C109.985 26.9872 110.36 26.1102 110.957 25.3224C112.775 23.2173 115.105 22.2233 117.949 22.3406C120.948 22.1974 123.249 23.3375 124.851 25.7609C125.214 26.4819 125.44 27.242 125.528 28.0411Z" fill="#232830"/>
<path fill-rule="evenodd" clip-rule="evenodd" d="M179.212 28.4795C179.003 28.7939 178.883 29.1448 178.851 29.532V29.7074C178.648 30.5016 178.543 31.3202 178.535 32.163C178.49 35.1154 178.475 38.068 178.49 41.0207H176.144C176.118 37.2192 176.148 33.4188 176.234 29.6197C176.363 29.4429 176.423 29.2383 176.415 29.0057C177.285 25.7196 179.36 23.5124 182.64 22.3843C183.638 22.2103 184.571 22.3712 185.437 22.8667C185.529 22.9107 185.545 22.9691 185.482 23.0421C185.095 23.6047 184.719 24.1748 184.355 24.7523C184.055 24.7676 183.755 24.753 183.452 24.7084C182.588 24.8071 181.836 25.1432 181.197 25.717C180.337 26.5078 179.676 27.4286 179.212 28.4795Z" fill="#232830"/>
<path fill-rule="evenodd" clip-rule="evenodd" d="M144.024 21.025C143.875 22.1299 143.815 23.2407 143.844 24.3577C143.739 23.5546 143.725 22.736 143.799 21.902C143.847 21.5917 143.922 21.2994 144.024 21.025Z" fill="#C8C9CB"/>
<path fill-rule="evenodd" clip-rule="evenodd" d="M102.07 22.7791V41.0208H104.325V22.7791C104.416 28.8741 104.445 34.9839 104.416 41.1085H101.98C101.95 34.9839 101.98 28.8741 102.07 22.7791Z" fill="#555A5F"/>
<path d="M104.325 22.7791H102.07V41.0208H104.325V22.7791Z" fill="#232830"/>
<path fill-rule="evenodd" clip-rule="evenodd" d="M37.8298 23.7438C37.8141 23.9508 37.784 24.1554 37.7396 24.3577C36.0827 24.4149 34.4586 24.3565 32.8674 24.1823C34.4545 24.2688 36.0485 24.298 37.6493 24.27C37.6579 24.0695 37.7181 23.8941 37.8298 23.7438Z" fill="#D0D1D3"/>
<path fill-rule="evenodd" clip-rule="evenodd" d="M132.205 15.6753C132.295 18.5836 132.325 21.507 132.295 24.4454C133.785 24.4164 135.258 24.4457 136.716 24.5331H132.205V15.6753Z" fill="#808387"/>
<path fill-rule="evenodd" clip-rule="evenodd" d="M37.2885 25.4101C36.6598 25.2933 35.9981 25.2349 35.3035 25.2347C34.609 25.2349 33.9473 25.2933 33.3186 25.4101C33.237 25.3479 33.207 25.2602 33.2283 25.147H37.3787C37.4001 25.2602 37.37 25.3479 37.2885 25.4101Z" fill="#B4B5B8"/>
<path fill-rule="evenodd" clip-rule="evenodd" d="M37.2884 25.41C36.9729 26.3307 36.6721 27.2662 36.3861 28.2164C36.3388 28.2771 36.2786 28.321 36.2057 28.348C35.5741 28.4065 34.9425 28.4065 34.311 28.348C34.2658 28.3041 34.2207 28.2603 34.1756 28.2164C33.8387 27.2946 33.553 26.3592 33.3185 25.41C33.9472 25.2933 34.6089 25.2349 35.3034 25.2346C35.998 25.2349 36.6597 25.2933 37.2884 25.41Z" fill="#242931"/>
<path fill-rule="evenodd" clip-rule="evenodd" d="M136.716 26.4625C135.258 26.5499 133.785 26.5792 132.295 26.5502V35.0572C132.205 32.2073 132.175 29.3424 132.205 26.4625H136.716Z" fill="#8D9094"/>
<path fill-rule="evenodd" clip-rule="evenodd" d="M153.588 28.0411C153.538 28.4503 153.418 28.8303 153.227 29.1812C153.278 28.7721 153.398 28.3921 153.588 28.0411Z" fill="#595D63"/>
<path fill-rule="evenodd" clip-rule="evenodd" d="M187.242 28.1288C187.191 28.5379 187.071 28.9179 186.881 29.2689C186.932 28.8598 187.052 28.4798 187.242 28.1288Z" fill="#676A70"/>
<path fill-rule="evenodd" clip-rule="evenodd" d="M123.092 28.0411C123.231 28.2462 123.292 28.4801 123.273 28.7427C123.158 28.5318 123.098 28.2979 123.092 28.0411Z" fill="#8C8F93"/>
<path fill-rule="evenodd" clip-rule="evenodd" d="M179.212 28.4796C179.143 28.8538 179.023 29.2046 178.851 29.532C178.883 29.1448 179.003 28.794 179.212 28.4796Z" fill="#B7B9BC"/>
<path fill-rule="evenodd" clip-rule="evenodd" d="M189.678 28.655C189.609 29.0292 189.489 29.3801 189.317 29.7074C189.349 29.3202 189.469 28.9694 189.678 28.655Z" fill="#BFC0C3"/>
<path fill-rule="evenodd" clip-rule="evenodd" d="M54.4311 49.1769C54.5634 49.1026 54.6386 48.9857 54.6567 48.8261C54.7299 48.4587 54.7149 48.1079 54.6116 47.7737C54.3458 46.7117 53.654 46.0831 52.5364 45.8881C40.8974 45.8589 29.2584 45.8297 17.6194 45.8004C16.5205 45.5355 15.7385 44.907 15.2736 43.9149C15.0364 43.0643 15.0364 42.2165 15.2736 41.3716C15.7594 40.3013 16.6014 39.6728 17.7999 39.486C29.4389 39.4568 41.0779 39.4275 52.7169 39.3983C54.1045 39.0142 54.7511 38.1226 54.6567 36.7234C54.4003 35.7726 53.7838 35.1733 52.8071 34.9256C46.9124 34.8964 41.0177 34.8671 35.123 34.8379C35.0479 34.7648 34.9726 34.6917 34.8975 34.6186C34.8524 32.8649 34.8373 31.1108 34.8524 29.3566H35.7546C35.7395 30.7893 35.7546 32.2217 35.7997 33.6539C35.8335 33.7342 35.8786 33.8074 35.935 33.8732C41.4989 33.9024 47.0627 33.9316 52.6266 33.9609C55.1237 34.6205 56.0109 36.1552 55.2883 38.5651C54.737 39.5676 53.8798 40.1668 52.7169 40.363C41.0478 40.3922 29.3787 40.4215 17.7097 40.4507C15.9676 41.1622 15.5014 42.3462 16.3112 44.0026C16.6633 44.4734 17.1295 44.7803 17.7097 44.9234C29.4716 44.9243 41.2309 44.9828 52.9875 45.0988C54.5979 45.4817 55.4701 46.4757 55.604 48.0807C55.5412 49.748 54.6991 50.8296 53.0777 51.3256C40.4463 51.3841 27.8148 51.3841 15.1834 51.3256C14.9427 51.0625 15.1834 50.5363 15.1834 50.5363C27.6946 50.5071 40.2057 50.4778 52.7169 50.4486C53.4844 50.2724 54.0558 49.8484 54.4311 49.1769Z" fill="#272C34"/>
<path fill-rule="evenodd" clip-rule="evenodd" d="M176.415 29.0057C176.423 29.2383 176.363 29.4429 176.234 29.6196C176.226 29.3871 176.287 29.1825 176.415 29.0057Z" fill="#717479"/>
<path fill-rule="evenodd" clip-rule="evenodd" d="M213.497 29.0057C213.482 29.2128 213.451 29.4174 213.407 29.6196H227.211V29.2688C227.297 29.3933 227.327 29.5394 227.302 29.7073C222.61 29.7365 217.918 29.7073 213.227 29.6196C213.301 29.399 213.392 29.1943 213.497 29.0057Z" fill="#8E9095"/>
<path fill-rule="evenodd" clip-rule="evenodd" d="M153.227 29.2689C153.235 29.5015 153.175 29.7061 153.047 29.8828C153.039 29.6502 153.099 29.4456 153.227 29.2689Z" fill="#71747A"/>
<path fill-rule="evenodd" clip-rule="evenodd" d="M90.9721 29.7074C90.8836 33.4764 90.8539 37.2476 90.8818 41.0208C90.7772 37.3522 90.7618 33.6688 90.8367 29.9705C90.8575 29.862 90.9026 29.7743 90.9721 29.7074Z" fill="#4A4E55"/>
<path fill-rule="evenodd" clip-rule="evenodd" d="M176.235 29.6198C176.148 33.4189 176.118 37.2193 176.144 41.0208C176.04 37.3814 176.024 33.7272 176.099 30.0583C176.117 29.8932 176.162 29.7471 176.235 29.6198Z" fill="#54585E"/>
<path fill-rule="evenodd" clip-rule="evenodd" d="M112.085 29.7952C112.09 30.2539 112.03 30.6924 111.904 31.1107C111.899 30.6519 111.959 30.2134 112.085 29.7952Z" fill="#96999D"/>
<path fill-rule="evenodd" clip-rule="evenodd" d="M203.933 30.2336C204.038 30.9197 204.052 31.6213 203.978 32.3385C203.965 32.6571 203.89 32.9494 203.753 33.2155C203.9 32.2276 203.96 31.2337 203.933 30.2336Z" fill="#54585E"/>
<path fill-rule="evenodd" clip-rule="evenodd" d="M210.791 29.2689C210.643 30.3445 210.583 31.4261 210.61 32.5138C210.505 31.7693 210.491 31.0092 210.565 30.2336C210.603 29.8923 210.678 29.5708 210.791 29.2689Z" fill="#65686E"/>
<path fill-rule="evenodd" clip-rule="evenodd" d="M125.709 30.2336C125.799 33.8437 125.829 37.4687 125.799 41.1085H123.363V30.7598C123.437 30.9764 123.482 31.2102 123.498 31.4615C123.543 34.6478 123.559 37.8342 123.543 41.0208H125.709V30.2336Z" fill="#494D54"/>
<path fill-rule="evenodd" clip-rule="evenodd" d="M170.009 30.4967C170.114 31.1828 170.128 31.8844 170.054 32.6015C170.036 32.8907 169.96 33.1538 169.828 33.3908C169.978 32.4326 170.039 31.4679 170.009 30.4967Z" fill="#707378"/>
<path fill-rule="evenodd" clip-rule="evenodd" d="M125.528 28.0411C125.584 28.0509 125.629 28.0801 125.664 28.1288C125.748 28.6816 125.809 29.2371 125.844 29.7952C125.919 33.5811 125.904 37.3522 125.799 41.1085C125.829 37.4687 125.799 33.8437 125.709 30.2337C125.721 29.4964 125.661 28.7655 125.528 28.0411Z" fill="#CBCCCE"/>
<path fill-rule="evenodd" clip-rule="evenodd" d="M229.828 30.4967C229.917 30.8887 229.947 31.298 229.918 31.7245H213.046V31.9876C212.962 31.894 212.932 31.777 212.956 31.6368H229.828V30.4967Z" fill="#8E9094"/>
<path fill-rule="evenodd" clip-rule="evenodd" d="M155.573 29.9705C155.504 30.8459 155.475 31.7229 155.483 32.6015C155.422 32.2519 155.393 31.8865 155.393 31.5052C155.374 30.9717 155.435 30.4602 155.573 29.9705Z" fill="#B3B5B8"/>
<path fill-rule="evenodd" clip-rule="evenodd" d="M69.6791 29.8828C69.609 30.8166 69.579 31.7522 69.5889 32.6892C69.5288 32.3104 69.4988 31.9157 69.4987 31.5053C69.4796 30.9428 69.5397 30.4019 69.6791 29.8828Z" fill="#C5C7C9"/>
<path fill-rule="evenodd" clip-rule="evenodd" d="M93.4984 29.9705C93.3621 33.6657 93.2719 37.3492 93.2277 41.0207C93.2124 37.9803 93.2277 34.94 93.2728 31.8999C93.2927 31.2378 93.3684 30.5946 93.4984 29.9705Z" fill="#B2B4B7"/>
<path fill-rule="evenodd" clip-rule="evenodd" d="M153.047 30.3213C153.032 31.317 153.062 32.311 153.137 33.3031C153.066 33.2059 153.021 33.0889 153.002 32.9523C152.928 32.06 152.942 31.1829 153.047 30.3213Z" fill="#54585E"/>
<path fill-rule="evenodd" clip-rule="evenodd" d="M84.2954 33.04C84.3035 33.2726 84.2431 33.4772 84.115 33.6539C84.1069 33.4214 84.1673 33.2168 84.2954 33.04Z" fill="#6D7075"/>
<path fill-rule="evenodd" clip-rule="evenodd" d="M203.753 33.3031C203.733 33.6243 203.643 33.9166 203.482 34.1801C203.502 33.8589 203.592 33.5666 203.753 33.3031Z" fill="#6A6E73"/>
<path fill-rule="evenodd" clip-rule="evenodd" d="M169.829 33.4785C169.837 33.7111 169.776 33.9157 169.648 34.0924C169.64 33.8598 169.7 33.6552 169.829 33.4785Z" fill="#707378"/>
<path fill-rule="evenodd" clip-rule="evenodd" d="M86.7316 33.3031C86.7397 33.5357 86.6793 33.7403 86.5511 33.917C86.543 33.6844 86.6035 33.4798 86.7316 33.3031Z" fill="#ABADB0"/>
<path fill-rule="evenodd" clip-rule="evenodd" d="M109.829 27.9534C109.753 28.6575 109.649 29.3591 109.513 30.0582C109.468 33.7122 109.453 37.3665 109.468 41.0208H111.814C111.018 41.1079 110.206 41.1372 109.378 41.1085C109.363 37.3665 109.378 33.6245 109.423 29.8828C109.497 29.2156 109.632 28.5725 109.829 27.9534Z" fill="#5B5F65"/>
<path fill-rule="evenodd" clip-rule="evenodd" d="M172.265 33.917C172.219 34.3733 172.068 34.7826 171.813 35.1448C171.931 34.7157 172.081 34.3064 172.265 33.917Z" fill="#B3B4B7"/>
<path fill-rule="evenodd" clip-rule="evenodd" d="M178.851 29.7074C178.742 30.5513 178.667 31.3991 178.625 32.2507C178.61 35.189 178.565 38.1123 178.49 41.0208C178.475 38.0681 178.49 35.1155 178.535 32.163C178.543 31.3202 178.648 30.5016 178.851 29.7074Z" fill="#9B9DA1"/>
<path fill-rule="evenodd" clip-rule="evenodd" d="M203.753 39.5299C203.783 38.8121 203.752 38.1105 203.663 37.425C203.651 37.3482 203.681 37.2897 203.753 37.2496C203.872 38.0236 203.872 38.7836 203.753 39.5299Z" fill="#AFB1B4"/>
<path fill-rule="evenodd" clip-rule="evenodd" d="M69.7694 37.6882C69.7092 41.05 69.6491 44.4119 69.5889 47.7737C69.5589 44.3822 69.5889 40.9911 69.6791 37.6005C69.7339 37.6113 69.7639 37.6405 69.7694 37.6882Z" fill="#75787D"/>
<path fill-rule="evenodd" clip-rule="evenodd" d="M189.497 42.1609C188.649 42.1049 187.837 42.1634 187.061 42.3363C186.973 42.309 186.913 42.2505 186.881 42.1609C187.768 42.0448 188.639 42.0448 189.497 42.1609Z" fill="#53575D"/>
<path fill-rule="evenodd" clip-rule="evenodd" d="M15.2736 41.3716C15.0364 42.2165 15.0364 43.0643 15.2736 43.9149C15.157 43.7972 15.0818 43.651 15.0481 43.4764C14.9879 42.921 14.9879 42.3655 15.0481 41.8101C15.0818 41.6355 15.157 41.4893 15.2736 41.3716Z" fill="#54575E"/>
<path fill-rule="evenodd" clip-rule="evenodd" d="M54.6116 47.7738C54.7149 48.108 54.73 48.4588 54.6567 48.8262C54.6387 48.9858 54.5634 49.1027 54.4312 49.177C54.5831 48.7231 54.6432 48.2554 54.6116 47.7738Z" fill="#7B7E83"/>
</g>
<defs>
<clipPath id="clip0_610_563">
<rect width="240" height="61" fill="white"/>
</clipPath>
</defs>
</svg>
